<?xml version="1.0" encoding="UTF-8" standalone="no"?>
<svg
   xmlns:dc="http://purl.org/dc/elements/1.1/"
   xmlns:cc="http://creativecommons.org/ns#"
   xmlns:rdf="http://www.w3.org/1999/02/22-rdf-syntax-ns#"
   xmlns:svg="http://www.w3.org/2000/svg"
   xmlns="http://www.w3.org/2000/svg"
   xmlns:sodipodi="http://sodipodi.sourceforge.net/DTD/sodipodi-0.dtd"
   xmlns:inkscape="http://www.inkscape.org/namespaces/inkscape"
   viewBox="0 0 512 512"
   id="svg3131"
   version="1.1"
   inkscape:version="0.48.4 r9939"
   width="100%"
   height="100%"
   sodipodi:docname="coinS.svg">
  <metadata
     id="metadata3141">
    <rdf:RDF>
      <cc:Work
         rdf:about="">
        <dc:format>image/svg+xml</dc:format>
        <dc:type
           rdf:resource="http://purl.org/dc/dcmitype/StillImage" />
        <dc:title></dc:title>
      </cc:Work>
    </rdf:RDF>
  </metadata>
  <defs
     id="defs3139" />
  <sodipodi:namedview
     pagecolor="#ffffff"
     bordercolor="#666666"
     borderopacity="1"
     objecttolerance="10"
     gridtolerance="10"
     guidetolerance="10"
     inkscape:pageopacity="0"
     inkscape:pageshadow="2"
     inkscape:window-width="1920"
     inkscape:window-height="1056"
     id="namedview3137"
     showgrid="false"
     inkscape:zoom="1.109375"
     inkscape:cx="53.183099"
     inkscape:cy="254.31558"
     inkscape:window-x="0"
     inkscape:window-y="24"
     inkscape:window-maximized="1"
     inkscape:current-layer="svg3131" />
  <path
     style="fill:#000000"
     d="m 285.7544,53.625 c -11.36234,0 -22.49758,0.991391 -33.34375,2.8125 -7.98492,-0.966783 -16.09793,-1.5 -24.34375,-1.5 -110.7675,0 -200.562499,89.795 -200.562499,200.5625 0,110.76749 89.794999,200.5625 200.562499,200.5625 11.34245,0 22.45262,-0.97216 33.28125,-2.78125 7.99697,0.96918 16.15139,1.46875 24.40625,1.46875 110.76749,0 200.5625,-89.79501 200.5625,-200.5625 0,-110.76751 -89.79501,-200.5625 -200.5625,-200.5625 z m -57.6875,34.03125 c 92.68724,0 167.8125,75.1565 167.8125,167.84375 0,92.68724 -75.12526,167.8125 -167.8125,167.8125 -92.68725,0 -167.843749,-75.12526 -167.843749,-167.8125 0,-92.68725 75.156499,-167.84375 167.843749,-167.84375 z m 129.84375,15 c 56.55862,26.98718 95.65625,84.68532 95.65625,151.53125 0,64.17736 -36.03962,119.95571 -88.96875,148.1875 35.08048,-32.6208 58.43751,-77.63446 63.125,-128.09375 0.92259,-6.56533 1.40625,-13.27514 1.40625,-20.09375 0,-8.89353 -0.82241,-17.58813 -2.375,-26.03125 -6.82472,-50.09103 -32.13621,-94.28249 -68.84375,-125.5 z M 228.0669,112.125 c -79.17902,0 -143.374999,64.19599 -143.374999,143.375 0,79.17902 64.195979,143.34375 143.374999,143.34375 79.17902,0 143.34375,-64.16473 143.34375,-143.34375 0,-79.17901 -64.16473,-143.375 -143.34375,-143.375 z m -2.8125,55.5625 c 7.58296,1.8e-4 14.38645,1.0862 20.46875,3.21875 6.16112,2.1329 11.3907,5.22168 15.65625,9.25 4.26535,3.94966 7.55294,8.79639 9.84375,14.5625 2.36959,5.68742 3.53114,12.12455 3.53125,19.3125 -1.1e-4,6.71427 -1.05488,13.10539 -3.1875,19.1875 -2.05385,6.08233 -4.94383,12.07585 -8.65625,18 -3.63363,5.84534 -8.022,11.73209 -13.15625,17.65625 -5.05544,5.92431 -10.54458,12.10188 -16.46875,18.5 l -33.28125,35.4375 0,0.9375 81.625,0 0,19.65625 -108.0625,0 0,-18.46875 41.46875,-45.15625 c 5.92419,-6.39811 11.24578,-12.23885 15.90625,-17.53125 4.66033,-5.29224 8.60509,-10.4758 11.84375,-15.53125 3.31749,-5.05525 5.82464,-10.10079 7.5625,-15.15625 1.73769,-5.13423 2.62491,-10.71539 2.625,-16.71875 -9e-5,-4.66027 -0.68851,-8.75782 -2.03125,-12.3125 -1.34292,-3.5544 -3.28491,-6.55117 -5.8125,-9 -2.44877,-2.52752 -5.35351,-4.42351 -8.75,-5.6875 -3.39664,-1.26368 -7.1886,-1.90609 -11.375,-1.90625 -7.5041,1.6e-4 -14.29282,1.54455 -20.375,4.625 -6.00327,3.00177 -11.73723,6.88575 -17.1875,11.625 l -12.09375,-14.09375 c 3.15958,-2.84348 6.55394,-5.48865 10.1875,-7.9375 3.63351,-2.52751 7.5635,-4.71431 11.75,-6.53125 4.18643,-1.8166 8.58955,-3.22296 13.25,-4.25 4.66035,-1.10568 9.58435,-1.68732 14.71875,-1.6875 z"
     id="path3977"
     inkscape:connector-curvature="0" />
</svg>
