<?xml version="1.0" encoding="UTF-8" standalone="no"?>
<svg
   xmlns:dc="http://purl.org/dc/elements/1.1/"
   xmlns:cc="http://creativecommons.org/ns#"
   xmlns:rdf="http://www.w3.org/1999/02/22-rdf-syntax-ns#"
   xmlns:svg="http://www.w3.org/2000/svg"
   xmlns="http://www.w3.org/2000/svg"
   xmlns:sodipodi="http://sodipodi.sourceforge.net/DTD/sodipodi-0.dtd"
   xmlns:inkscape="http://www.inkscape.org/namespaces/inkscape"
   viewBox="0 0 512 512"
   id="svg3131"
   version="1.1"
   inkscape:version="0.48.4 r9939"
   width="100%"
   height="100%"
   sodipodi:docname="coins.svg">
  <metadata
     id="metadata3141">
    <rdf:RDF>
      <cc:Work
         rdf:about="">
        <dc:format>image/svg+xml</dc:format>
        <dc:type
           rdf:resource="http://purl.org/dc/dcmitype/StillImage" />
        <dc:title />
      </cc:Work>
    </rdf:RDF>
  </metadata>
  <defs
     id="defs3139" />
  <sodipodi:namedview
     pagecolor="#ffffff"
     bordercolor="#666666"
     borderopacity="1"
     objecttolerance="10"
     gridtolerance="10"
     guidetolerance="10"
     inkscape:pageopacity="0"
     inkscape:pageshadow="2"
     inkscape:window-width="1920"
     inkscape:window-height="1056"
     id="namedview3137"
     showgrid="false"
     inkscape:zoom="1.109375"
     inkscape:cx="53.183099"
     inkscape:cy="254.31558"
     inkscape:window-x="0"
     inkscape:window-y="24"
     inkscape:window-maximized="1"
     inkscape:current-layer="svg3131" />
  <path
     style="fill:#000000"
     d="m 287.91307,31.486772 c -12.56779,0 -24.88438,1.096569 -36.88123,3.110881 -8.83206,-1.06935 -17.80579,-1.659136 -26.92642,-1.659136 -122.51898,0 -221.8404556,99.321483 -221.8404556,221.840463 0,122.51895 99.3214756,221.84045 221.8404556,221.84045 12.54579,0 24.83464,-1.0753 36.8121,-3.07632 8.84539,1.072 17.86491,1.62457 26.99555,1.62457 122.51896,0 221.84045,-99.32149 221.84045,-221.84045 0,-122.51899 -99.32149,-221.840458 -221.84045,-221.840458 z m -63.80765,37.641673 c 102.52055,0 185.61596,83.129955 185.61596,185.650535 0,102.52055 -83.09541,185.61595 -185.61596,185.61595 -102.52057,0 -185.650528,-83.0954 -185.650528,-185.61595 0,-102.52058 83.129958,-185.650535 185.650528,-185.650535 z m 143.61906,16.59137 c 62.559,29.850285 105.80455,93.669705 105.80455,167.607415 0,70.98602 -39.86312,132.68197 -98.40757,163.90891 38.80222,-36.08158 64.63723,-85.87081 69.82202,-141.68339 1.02047,-7.26185 1.55544,-14.68352 1.55544,-22.22552 0,-9.83706 -0.90967,-19.45408 -2.62696,-28.79294 -7.54877,-55.40526 -35.5456,-104.28506 -76.14748,-138.814475 z M 224.10542,96.193118 c -87.57924,0 -158.585854,71.006632 -158.585854,158.585862 0,87.57922 71.006614,158.55128 158.585854,158.55128 87.57923,0 158.55129,-70.97206 158.55129,-158.55128 0,-87.57923 -70.97206,-158.585862 -158.55129,-158.585862 z m -3.11088,61.457202 c 8.38744,2e-4 15.91272,1.20144 22.6403,3.56023 6.81477,2.35919 12.59916,5.77566 17.31725,10.23135 4.71787,4.36868 8.35424,9.72961 10.88809,16.10746 2.62098,6.29081 3.90576,13.41085 3.90588,21.36139 -1.2e-4,7.42659 -1.1668,14.49576 -3.52566,21.22313 -2.27176,6.72761 -5.46833,13.35698 -9.57461,19.90963 -4.01912,6.46549 -8.87307,12.97677 -14.55202,19.52943 -5.59178,6.55283 -11.66327,13.38579 -18.21594,20.46269 l -36.8121,39.19712 0,1.03696 90.28471,0 0,21.74161 -119.52701,0 0,-20.42813 45.86823,-49.94693 c 6.55269,-7.07691 12.43887,-13.5373 17.59377,-19.39117 5.15475,-5.8537 9.51802,-11.58719 13.10027,-17.17898 3.66945,-5.59157 6.44259,-11.1724 8.36482,-16.7642 1.92204,-5.67893 2.90338,-11.8522 2.90349,-18.49247 -1.1e-4,-5.15468 -0.76156,-9.68695 -2.24675,-13.61874 -1.4854,-3.9315 -3.63342,-7.2462 -6.42916,-9.95483 -2.70856,-2.79567 -5.92147,-4.89281 -9.6783,-6.2909 -3.75699,-1.39774 -7.95125,-2.1083 -12.58178,-2.10848 -8.30023,1.8e-4 -15.80918,1.70842 -22.53662,5.11567 -6.64016,3.32023 -12.98245,7.61627 -19.01095,12.85832 L 165.79366,180.2215 c 3.49479,-3.14515 7.24925,-6.07095 11.26831,-8.7796 4.01899,-2.79566 8.36592,-5.21446 12.99657,-7.22417 4.63058,-2.00932 9.50083,-3.56488 14.65572,-4.70088 5.15476,-1.22298 10.60117,-1.86633 16.28028,-1.86653 z"
     id="path3977"
     inkscape:connector-curvature="0" />
</svg>
