<?xml version="1.0" encoding="UTF-8" standalone="no"?>
<svg
   xmlns:dc="http://purl.org/dc/elements/1.1/"
   xmlns:cc="http://creativecommons.org/ns#"
   xmlns:rdf="http://www.w3.org/1999/02/22-rdf-syntax-ns#"
   xmlns:svg="http://www.w3.org/2000/svg"
   xmlns="http://www.w3.org/2000/svg"
   xmlns:sodipodi="http://sodipodi.sourceforge.net/DTD/sodipodi-0.dtd"
   xmlns:inkscape="http://www.inkscape.org/namespaces/inkscape"
   viewBox="0 0 512 512"
   id="svg3131"
   version="1.1"
   inkscape:version="0.48.4 r9939"
   width="100%"
   height="100%"
   sodipodi:docname="gavel.svg">
  <metadata
     id="metadata3141">
    <rdf:RDF>
      <cc:Work
         rdf:about="">
        <dc:format>image/svg+xml</dc:format>
        <dc:type
           rdf:resource="http://purl.org/dc/dcmitype/StillImage" />
        <dc:title></dc:title>
      </cc:Work>
    </rdf:RDF>
  </metadata>
  <defs
     id="defs3139" />
  <sodipodi:namedview
     pagecolor="#ffffff"
     bordercolor="#666666"
     borderopacity="1"
     objecttolerance="10"
     gridtolerance="10"
     guidetolerance="10"
     inkscape:pageopacity="0"
     inkscape:pageshadow="2"
     inkscape:window-width="1920"
     inkscape:window-height="1056"
     id="namedview3137"
     showgrid="false"
     inkscape:zoom="1.109375"
     inkscape:cx="-59.492962"
     inkscape:cy="182.2029"
     inkscape:window-x="0"
     inkscape:window-y="24"
     inkscape:window-maximized="1"
     inkscape:current-layer="svg3131" />
  <path
     style="fill:#000000;stroke:none"
     d="m 498.68176,204.65487 c 12.61126,12.53582 12.67198,32.77586 0.13618,45.3871 L 376.15322,373.44483 c -12.53578,12.61124 -32.77586,12.67194 -45.38711,0.13616 l -1.20452,-1.19733 c -12.61122,-12.53582 -12.67194,-32.77586 -0.13615,-45.38708 l 5.36736,-5.3997 -60.18538,-59.82534 -30.71778,30.90264 c 3.71981,13.30602 -0.47221,29.21833 -12.13509,40.9514 L 71.683514,494.6599 C 55.324727,511.11711 30.681447,512.94507 16.410851,498.75982 2.1402459,484.57458 3.8203588,459.92078 20.179117,443.46359 L 180.25017,282.42928 c 11.68327,-11.75358 27.5767,-16.09617 40.91912,-12.42211 l 30.67651,-30.8611 -60.22691,-59.86665 -5.36734,5.39966 c -12.53584,12.61126 -32.77586,12.67195 -45.38709,0.13617 l -1.20455,-1.19735 c -12.61126,-12.53581 -12.67195,-32.77585 -0.13616,-45.38708 L 262.18846,14.827958 c 12.5358,-12.6112347 32.77586,-12.6719587 45.38709,-0.136154 l 1.20454,1.197332 c 12.61124,12.535804 12.67194,32.775841 0.13616,45.38709 l -5.32607,5.358112 143.1739,142.317482 5.32609,-5.35813 c 12.53578,-12.61122 32.77584,-12.67194 45.38709,-0.13614 l 1.2045,1.19732 z"
     id="rect3011"
     inkscape:connector-curvature="0" />
</svg>
