<?xml version="1.0" encoding="UTF-8" standalone="no"?>
<!-- Created with Inkscape (http://www.inkscape.org/) -->

<svg
   xmlns:dc="http://purl.org/dc/elements/1.1/"
   xmlns:cc="http://creativecommons.org/ns#"
   xmlns:rdf="http://www.w3.org/1999/02/22-rdf-syntax-ns#"
   xmlns:svg="http://www.w3.org/2000/svg"
   xmlns="http://www.w3.org/2000/svg"
   version="1.1"
   width="512"
   height="512"
   id="svg3057">
  <metadata
     id="metadata3063">
    <rdf:RDF>
      <cc:Work
         rdf:about="">
        <dc:format>image/svg+xml</dc:format>
        <dc:type
           rdf:resource="http://purl.org/dc/dcmitype/StillImage" />
        <dc:title></dc:title>
      </cc:Work>
    </rdf:RDF>
  </metadata>
  <defs
     id="defs3061" />
  <path
     d="m 268,2.0040898 c -23.27959,1.85629 -32.51576,3.20885 -81,11.8617502 -27.775,4.95695 -51.7375,9.2758 -53.25,9.59744 l -2.75,0.58479 0,105.92055 0,105.92054 6.84028,0 c 9.8898,0 17.14216,3.84664 28.16727,14.93988 18.23038,18.34302 34.20605,46.21484 54.97129,95.90521 5.37765,12.86852 10.70074,20.18488 20.6042,28.31964 23.1835,19.04304 27.15014,23.41201 34.48724,37.98529 7.60441,15.10421 13.46023,40.45309 16.36698,70.84998 2.31318,24.18966 2.28007,23.95448 3.59529,25.53922 0.95404,1.14955 4.09989,1.46078 14.7653,1.46078 13.52876,0 13.56589,-0.006 20.79221,-3.57698 8.75618,-4.32651 18.44484,-12.86234 23.53022,-20.73041 3.90577,-6.04299 7.88276,-16.89494 9.96545,-27.19261 1.8058,-8.92857 1.55421,-31.35015 -0.46917,-41.81199 -2.43577,-12.59417 -5.26662,-19.76122 -18.01901,-45.61997 -13.01913,-26.39962 -18.70141,-42.03442 -18.88806,-51.97053 -0.22237,-11.83697 -6.66648,-10.58995 55.02881,-10.64871 82.62269,-0.0787 87.33188,-1.14172 104.19503,-23.52081 8.97202,-11.90677 13.32203,-21.60949 13.85513,-30.90394 l 0.43156,-7.52405 -5.77837,-8 c -11.00839,-15.24081 -10.6644,-14.57878 -10.19293,-19.61651 0.32819,-3.50686 2.19988,-7.56288 7.78685,-16.8744 6.42161,-10.70258 7.40786,-12.99135 7.77295,-18.03859 0.47276,-6.53587 -0.89689,-9.12131 -10.80314,-20.39271 -8.81832,-10.03356 -10.33087,-12.86496 -9.78682,-18.32033 0.26096,-2.6166 2.63114,-10.15746 5.26709,-16.75746 8.2448,-20.6437 7.15532,-24.85776 -11.15455,-43.14545 C 468.56685,80.48644 463.20925,74.24087 462.42532,72.36467 461.44512,70.01872 461,64.98212 461,56.237 461,40.48543 459.93948,37.90407 448.62712,26.12086 439.79707,16.92327 430.74744,10.03633 422.57553,6.2951098 c -11.21488,-5.13434 -15.64459,-5.41745 -82.4135,-5.26711 -33.91412,0.07635 -66.38703,0.5156 -72.16203,0.97609 z M 28.5,10.82423 C 21.615831,12.50017 16.014592,17.0354 12.364162,23.88916 10.580512,27.238 10.5,31.77289 10.5,128.88916 l 0,101.5 2.20615,4.12421 c 2.496162,4.66636 7.134196,8.9209 12.29385,11.27733 2.991644,1.36629 8.52109,1.59846 38.069916,1.59846 l 34.569915,0 5.896779,-3.01532 c 4.5137,-2.30809 6.60823,-4.16599 8.93008,-7.92124 L 115.5,231.54668 115.7973,130.46792 C 116.00975,58.23724 115.7761,28.29182 114.97873,25.54427 114.34775,23.37016 111.97742,19.81395 109.52397,17.3605 102.44233,10.27885 99.878473,9.8721598 63.068499,9.9915198 45.705824,10.04782 30.15,10.42254 28.5,10.82423 z"
     id="path3067"
     style="fill:#000000;stroke:none" />
</svg>
