<?xml version="1.0" encoding="UTF-8" standalone="no"?>
<!-- Created with Inkscape (http://www.inkscape.org/) -->

<svg
   xmlns:dc="http://purl.org/dc/elements/1.1/"
   xmlns:cc="http://creativecommons.org/ns#"
   xmlns:rdf="http://www.w3.org/1999/02/22-rdf-syntax-ns#"
   xmlns:svg="http://www.w3.org/2000/svg"
   xmlns="http://www.w3.org/2000/svg"
   version="1.1"
   width="512"
   height="512"
   id="svg3057">
  <metadata
     id="metadata3063">
    <rdf:RDF>
      <cc:Work
         rdf:about="">
        <dc:format>image/svg+xml</dc:format>
        <dc:type
           rdf:resource="http://purl.org/dc/dcmitype/StillImage" />
        <dc:title></dc:title>
      </cc:Work>
    </rdf:RDF>
  </metadata>
  <defs
     id="defs3061" />
  <path
     d="m 268,509.88507 c -23.27959,-1.85629 -32.51576,-3.20885 -81,-11.86175 -27.775,-4.95695 -51.7375,-9.2758 -53.25,-9.59744 L 131,487.84109 131,381.92054 131,276 l 6.84028,0 c 9.8898,0 17.14216,-3.84664 28.16727,-14.93988 18.23038,-18.34302 34.20605,-46.21484 54.97129,-95.90521 5.37765,-12.86852 10.70074,-20.18488 20.6042,-28.31964 23.1835,-19.04304 27.15014,-23.41201 34.48724,-37.98529 C 283.67469,83.745768 289.53051,58.396885 292.43726,28 294.75044,3.8103417 294.71733,4.0455203 296.03255,2.4607815 296.98659,1.3112297 300.13244,1 310.79785,1 c 13.52876,0 13.56589,0.00639 20.79221,3.5769789 8.75618,4.3265107 18.44484,12.8623371 23.53022,20.7304061 3.90577,6.042991 7.88276,16.894947 9.96545,27.192615 1.8058,8.928565 1.55421,31.350148 -0.46917,41.81199 -2.43577,12.59417 -5.26662,19.76122 -18.01901,45.61997 -13.01913,26.39962 -18.70141,42.03442 -18.88806,51.97053 -0.22237,11.83697 -6.66648,10.58995 55.02881,10.64871 82.62269,0.0787 87.33188,1.14172 104.19503,23.52081 8.97202,11.90677 13.32203,21.60949 13.85513,30.90394 l 0.43156,7.52405 -5.77837,8 c -11.00839,15.24081 -10.6644,14.57878 -10.19293,19.61651 0.32819,3.50686 2.19988,7.56288 7.78685,16.8744 6.42161,10.70258 7.40786,12.99135 7.77295,18.03859 0.47276,6.53587 -0.89689,9.12131 -10.80314,20.39271 -8.81832,10.03356 -10.33087,12.86496 -9.78682,18.32033 0.26096,2.6166 2.63114,10.15746 5.26709,16.75746 8.2448,20.6437 7.15532,24.85776 -11.15455,43.14545 -5.76425,5.75727 -11.12185,12.00284 -11.90578,13.87904 -0.9802,2.34595 -1.42532,7.38255 -1.42532,16.12767 0,15.75157 -1.06052,18.33293 -12.37288,30.11614 -8.83005,9.19759 -17.87968,16.08453 -26.05159,19.82575 -11.21488,5.13434 -15.64459,5.41745 -82.4135,5.26711 C 306.24791,510.78481 273.775,510.34556 268,509.88507 z M 28.5,501.06493 C 21.615831,499.38899 16.014592,494.85376 12.364162,488 10.580512,484.65116 10.5,480.11627 10.5,383 l 0,-101.5 2.20615,-4.12421 C 15.202312,272.70943 19.840346,268.45489 25,266.09846 27.991644,264.73217 33.52109,264.5 63.069916,264.5 l 34.569915,0 5.896779,3.01532 c 4.5137,2.30809 6.60823,4.16599 8.93008,7.92124 l 3.03331,4.90592 0.2973,101.07876 c 0.21245,72.23068 -0.0212,102.1761 -0.81857,104.92365 -0.63098,2.17411 -3.00131,5.73032 -5.45476,8.18377 -7.08164,7.08165 -9.645497,7.48834 -46.455471,7.36898 C 45.705824,501.84134 30.15,501.46662 28.5,501.06493 z"
     id="path3067"
     style="fill:#000000;stroke:none" />
</svg>
